# xmcd
#
# Track frame offsets:
#	150
#	16205
#	31112
#	45999
#	60470
#	74731
#	88459
#	102529
#	117999
#	133029
#	145832
#	159127
#	174632
#	186590
#	200810
#	215117
#	229387
#	240987
#	255560
#	270375
#	278703
#	292621
#	307341
#	321986
#	335446
#
# Disc length: 4665 seconds
#
# Revision: 0
# Processed by: cddbd v1.5.2PL0 Copyright (c) Steve Scherf et al.
# Submitted via: EasyCDDAExtractor 2011.3.0.0
#
DISCID=7e123719
DTITLE=Billie Holiday - Right to sing the blues [CD8)
DYEAR=2008
DGENRE=Blues
TTITLE0=I'll Be Seeing You
TTITLE1=I'm Yours
TTITLE2=Embraceable You
TTITLE3=AS Time Goes By
TTITLE4=Billie's Blues
TTITLE5=On The Sunny Side Of The Street
TTITLE6=He's Funny That Way
TTITLE7=Love Come Back To Me
TTITLE8=Lover Man
TTITLE9=No More
TTITLE10=That Old Devil Called Love
TTITLE11=Don't Explain
TTITLE12=You Better Go Now
TTITLE13=What Is This Thing Love?
TTITLE14=Good Morning Heartache
TTITLE15=No Good Man
TTITLE16=Big Stuff
TTITLE17=Baby I Don't Cry Over You
TTITLE18=I'll Look Around
TTITLE19=Do You Know What It Means To New Orleans
TTITLE20=The Blues Are Brewin'
TTITLE21=Guilty
TTITLE22=Deep song
TTITLE23=There Is No Greater Love
TTITLE24=Easy Living
EXTD=
EXTT0=
EXTT1=
EXTT2=
EXTT3=
EXTT4=
EXTT5=
EXTT6=
EXTT7=
EXTT8=
EXTT9=
EXTT10=
EXTT11=
EXTT12=
EXTT13=
EXTT14=
EXTT15=
EXTT16=
EXTT17=
EXTT18=
EXTT19=
EXTT20=
EXTT21=
EXTT22=
EXTT23=
EXTT24=
PLAYORDER=
